<svg width="185" height="52" xmlns="http://www.w3.org/2000/svg" xmlns:xlink="http://www.w3.org/1999/xlink">
    <defs>
        <path id="a" d="M0 0h5.957v6.085H0z"/>
        <path id="c" d="M0 0h25.631v52H0z"/>
        <path id="e" d="M0 52h182.929V0H0z"/>
    </defs>
    <g transform="translate(.071)" fill="none" fill-rule="evenodd">
        <path d="M7.497 29.085s2.985.806 3.69-.538c1.658-3.153-3.086-13.225-3.086-13.225s5.502 13.038 11.82 19.07c3.464 3.305 7.438 3.503 10.166 1.999 5.572-3.077 13.026-18.379 13.854-19.916.829-1.539-5.422 13.84-7.605 17.3-2.183 3.462-4.066 7.458-11.143 7.69-8.462.275-17.696-12.38-17.696-12.38" fill="#0F9BD7"/>
        <g transform="translate(0 16.123)">
            <mask id="b" fill="#fff">
                <use xlink:href="#a"/>
            </mask>
            <path d="M0 3.043C0 1.363 1.333 0 2.98 0c1.645 0 2.977 1.363 2.977 3.043 0 1.68-1.332 3.042-2.977 3.042C1.333 6.085 0 4.722 0 3.043" fill="#ACD5F1" mask="url(#b)"/>
        </g>
        <g transform="translate(7.873)">
            <mask id="d" fill="#fff">
                <use xlink:href="#c"/>
            </mask>
            <path d="M13.028 4.171s2.184-.77 2.484-.384c.63.804.528 1.614-1.206 3.614-1.73 1.999-6.7 7.304-6.7 7.304s10.186-9.316 13.025-8.38c2.336.768 1.358 4.152.98 5.381-.377 1.231-4.97 13.919-21.61 40.292-.182.29 24.462-29.757 25.525-42.52.903-10.843-4.292-9.46-4.669-9.38-4.411.9-7.83 4.073-7.83 4.073" fill="#1A3967" mask="url(#d)"/>
        </g>
        <path d="M64.023 29.175 58.52 15.877l-5.502 13.298h11.005zm-5.964-17.374h.923L71.5 41.356h-2.437l-4.243-10.209H52.22l-4.242 10.21h-2.436L58.06 11.8z" fill="#1A3967"/>
        <mask id="f" fill="#fff">
            <use xlink:href="#e"/>
        </mask>
        <path fill="#1A3967" mask="url(#f)" d="M75.616 41.356h2.142V12.06h-2.142zM83.977 22.011h2.1V25.1c1.806-2.275 3.948-3.433 6.551-3.433 4.285 0 6.722 2.832 6.722 7.893v11.798h-2.1V30.59c0-4.634-1.554-6.949-4.831-6.949-2.604 0-4.748 1.374-6.343 4.074v13.643h-2.1V22.01zM102.625 22.011h2.352L111.7 35.18l6.3-13.168h2.184L106.24 51.095h-2.142l6.467-13.513zM123.46 41.356h2.144V12.06h-2.145zM141.06 31.404c-5.712.087-8.863 2.318-8.863 5.32 0 1.974 1.387 3.217 3.698 3.217 1.638 0 3.276-.857 5.166-2.487v-6.05zm-5.755 10.38c-3.148 0-5.25-2.058-5.25-4.975 0-4.203 3.78-6.82 11.006-7.12v-2.058c0-2.875-1.262-4.161-4.242-4.161-1.933 0-3.74.815-5.799 2.359v-2.103c2.06-1.415 3.992-2.144 5.965-2.144 4.454 0 6.177 2.06 6.177 6.562v10.124c0 .856.21 1.245.672 1.245.587 0 1.133-.602 2.14-1.501v1.972c-1.216 1.159-2.266 1.76-3.066 1.76-1.218 0-1.723-.688-1.804-2.276-1.975 1.546-3.699 2.317-5.799 2.317zM149.335 22.011h2.102V25.1c1.722-2.275 3.78-3.433 6.299-3.433 2.815 0 4.58 1.158 5.881 3.947 2.059-2.66 4.16-3.947 6.806-3.947 4.117 0 6.468 2.832 6.468 7.893v11.798h-2.142V30.59c0-4.634-1.47-6.949-4.579-6.949-2.478 0-4.537 1.374-6.006 4.074v13.643h-2.1V30.59c0-4.634-1.513-6.949-4.621-6.949-2.48 0-4.494 1.374-6.006 4.074v13.643h-2.102V22.01zM179.884 19.427v1.083h.569c.602 0 .86-.113.86-.558 0-.37-.285-.525-.86-.525h-.569zm1.826.539c0 .403-.264.708-.687.757l.645 1.362h-.446l-.616-1.305h-.722v1.305h-.388v-2.928h1.034c.789 0 1.18.241 1.18.809zm.33-.916a2.192 2.192 0 0 0-1.587-.67c-.603 0-1.152.232-1.56.656a2.335 2.335 0 0 0-.666 1.622c0 .603.236 1.169.66 1.603.421.433.975.672 1.566.672.582 0 1.152-.24 1.588-.679.417-.418.645-.97.645-1.596 0-.615-.228-1.182-.645-1.608zm.176-.177c.464.477.713 1.108.713 1.785 0 .696-.249 1.305-.713 1.771a2.469 2.469 0 0 1-1.763.758c-.66 0-1.27-.266-1.74-.748a2.517 2.517 0 0 1-.73-1.78c0-.666.257-1.302.736-1.798a2.365 2.365 0 0 1 1.734-.73c.673 0 1.29.263 1.763.742z"/>
    </g>
</svg>
