<?xml version="1.0" encoding="UTF-8"?>
<svg width="9px" height="13px" viewBox="0 0 9 13" version="1.1" xmlns="http://www.w3.org/2000/svg" xmlns:xlink="http://www.w3.org/1999/xlink">
    <title>Download_white</title>
    <g id="Logos" stroke="none" stroke-width="1" fill="none" fill-rule="evenodd">
        <g id="Buttons-Pg-3-Copy" transform="translate(-876.000000, -416.000000)" stroke="#FFFFFF">
            <g id="Download-button-CTA" transform="translate(726.000000, 398.000000)">
                <g id="Download_white" transform="translate(151.000000, 19.000000)">
                    <path d="M8,4.5 C8,4.41411043 7.9690625,4.33458305 7.9184375,4.27414224 L5.1340625,1.09304703 C5.024375,0.968984322 4.8471875,0.968984322 4.7375,1.09304703 C4.625,1.21710975 4.625,1.42069984 4.7346875,1.54476255 L7.0409375,4.17870938 L-0.71875,4.17870938 C-0.8734375,4.17870938 -1,4.32185867 -1,4.5 C-1,4.67814133 -0.8734375,4.82129062 -0.71875,4.82129062 L7.0409375,4.82129062 L4.7375,7.45205635 C4.6278125,7.57611906 4.6278125,7.77970916 4.7375,7.90695297 C4.8471875,8.03101568 5.024375,8.03101568 5.1340625,7.90695297 L7.9184375,4.72585776 C7.9690625,4.66541695 8,4.58270848 8,4.5 Z" id="Arrow_Forward_1_-Copy-2" stroke-width="0.25" fill="#FFFFFF" transform="translate(3.500000, 4.500000) scale(1, -1) rotate(-90.000000) translate(-3.500000, -4.500000) "></path>
                    <line x1="0.25" y1="11" x2="6.75" y2="11" id="Line-6-Copy-2" stroke-linecap="round"></line>
                </g>
            </g>
        </g>
    </g>
</svg>