<?xml version="1.0" encoding="UTF-8"?>
<svg width="9px" height="13px" viewBox="0 0 9 13" version="1.1" xmlns="http://www.w3.org/2000/svg" xmlns:xlink="http://www.w3.org/1999/xlink">
    <title>Group 3</title>
    <g id="Logos" stroke="none" stroke-width="1" fill="none" fill-rule="evenodd">
        <g id="Buttons-Pg-3-Copy" transform="translate(-181.000000, -576.000000)" fill="#FF9900">
            <g id="Group" transform="translate(70.000000, 570.000000)">
                <g id="Group-3" transform="translate(111.000000, 7.000000)">
                    <path d="M9,4.5 C9,4.41411043 8.9690625,4.33458305 8.9184375,4.27414224 L6.1340625,1.09304703 C6.024375,0.968984322 5.8471875,0.968984322 5.7375,1.09304703 C5.625,1.21710975 5.625,1.42069984 5.7346875,1.54476255 L8.0409375,4.17870938 L0.28125,4.17870938 C0.1265625,4.17870938 0,4.32185867 0,4.5 C0,4.67814133 0.1265625,4.82129062 0.28125,4.82129062 L8.0409375,4.82129062 L5.7375,7.45205635 C5.6278125,7.57611906 5.6278125,7.77970916 5.7375,7.90695297 C5.8471875,8.03101568 6.024375,8.03101568 6.1340625,7.90695297 L8.9184375,4.72585776 C8.9690625,4.66541695 9,4.58270848 9,4.5 Z" id="Arrow_Forward_1_-Copy" stroke="#FF9900" stroke-width="0.25" transform="translate(4.500000, 4.500000) scale(1, -1) rotate(-90.000000) translate(-4.500000, -4.500000) "></path>
                    <path d="M7.75,10.5 C8.02614237,10.5 8.25,10.7238576 8.25,11 C8.25,11.2454599 8.07312484,11.4496084 7.83987563,11.4919443 L7.75,11.5 L1.25,11.5 C0.973857625,11.5 0.75,11.2761424 0.75,11 C0.75,10.7545401 0.926875161,10.5503916 1.16012437,10.5080557 L1.25,10.5 L7.75,10.5 Z" id="Line-6-Copy" fill-rule="nonzero"></path>
                </g>
            </g>
        </g>
    </g>
</svg>