<?xml version="1.0" encoding="UTF-8"?>
<svg width="12px" height="12px" viewBox="0 0 12 12" version="1.1" xmlns="http://www.w3.org/2000/svg" xmlns:xlink="http://www.w3.org/1999/xlink">
    <title>External Link Icon</title>
    <g id="Symbols" stroke="none" stroke-width="1" fill="none" fill-rule="evenodd">
        <g id="CTA-Proceed-to-Site" transform="translate(-153.000000, -18.000000)" fill="#FFFFFF" fill-rule="nonzero">
            <g id="External-Link-Icon" transform="translate(153.000000, 18.000000)">
                <path d="M8.23529412,12 L1.76470588,12 C0.794117647,12 0,11.2058824 0,10.2352941 L0,3.76470588 C0,2.79411765 0.794117647,2 1.76470588,2 L5.29411765,2 C5.61764706,2 5.88235294,2.26470588 5.88235294,2.58823529 C5.88235294,2.91176471 5.61764706,3.17647059 5.29411765,3.17647059 L1.76470588,3.17647059 C1.44117647,3.17647059 1.17647059,3.44117647 1.17647059,3.76470588 L1.17647059,10.2352941 C1.17647059,10.5588235 1.44117647,10.8235294 1.76470588,10.8235294 L8.23529412,10.8235294 C8.55882353,10.8235294 8.82352941,10.5588235 8.82352941,10.2352941 L8.82352941,6.70588235 C8.82352941,6.38235294 9.08823529,6.11764706 9.41176471,6.11764706 C9.73529412,6.11764706 10,6.38235294 10,6.70588235 L10,10.2352941 C10,11.2058824 9.20588235,12 8.23529412,12 Z" id="Path"></path>
                <path d="M11.9507408,0.381538462 C11.8891668,0.233846154 11.7660189,0.110769231 11.6182413,0.0492307692 C11.5443525,0.0184615385 11.4643063,0 11.3842602,0 L7.68982105,0 C7.35116413,0 7.0740812,0.276923077 7.0740812,0.615384615 C7.0740812,0.953846154 7.35116413,1.23076923 7.68982105,1.23076923 L9.90032711,1.23076923 L4.18010391,6.94769231 C3.93996536,7.18769231 3.93996536,7.57538462 4.18010391,7.81538462 C4.29709448,7.93846154 4.45102944,8 4.6111218,8 C4.77121416,8 4.92514912,7.93846154 5.04829709,7.82153846 L10.7685203,2.09846154 L10.7685203,4.30769231 C10.7685203,4.64615385 11.0456032,4.92307692 11.3842602,4.92307692 C11.7229171,4.92307692 12,4.64615385 12,4.30769231 L12,0.615384615 C12,0.535384615 11.9815278,0.455384615 11.9507408,0.381538462 Z" id="Path"></path>
            </g>
        </g>
    </g>
</svg>