<svg xmlns="http://www.w3.org/2000/svg" width="21" height="17" viewBox="0 0 21 17">
    <path fill="#09C" fill-rule="nonzero" d="M8.992 3.288c-1.44.736-2.52 1.576-3.24 2.52-.72.944-1.08 2.136-1.08 3.576.096-.032.256-.048.48-.048 1.024 0 1.896.312 2.616.936.72.624 1.08 1.48 1.08 2.568 0 1.216-.352 2.176-1.056 2.88-.704.704-1.584 1.056-2.64 1.056-1.504 0-2.632-.552-3.384-1.656C1.016 14.016.64 12.472.64 10.488c0-2.272.56-4.272 1.68-6C3.44 2.76 5.152 1.336 7.456.216l1.536 3.072zm11.328 0c-1.44.736-2.52 1.576-3.24 2.52-.72.944-1.08 2.136-1.08 3.576.096-.032.256-.048.48-.048 1.024 0 1.896.312 2.616.936.72.624 1.08 1.48 1.08 2.568 0 1.216-.352 2.176-1.056 2.88-.704.704-1.584 1.056-2.64 1.056-1.504 0-2.632-.552-3.384-1.656-.752-1.104-1.128-2.648-1.128-4.632 0-2.272.56-4.272 1.68-6 1.12-1.728 2.832-3.152 5.136-4.272l1.536 3.072z"/>
</svg>
